<?xml version="1.0" encoding="UTF-8" standalone="no"?>
<!-- Created with Inkscape (http://www.inkscape.org/) -->

<svg
   width="147.467mm"
   height="100.17539mm"
   viewBox="0 0 147.46699 100.17539"
   version="1.1"
   id="svg5"
   xml:space="preserve"
   xmlns="http://www.w3.org/2000/svg"
   xmlns:svg="http://www.w3.org/2000/svg"><defs
     id="defs2" /><g
     id="layer1"
     transform="translate(-36.83063,-89.334167)"><path
       style="fill:#fdfdfd;fill-opacity:0;stroke:#ffffff;stroke-width:0.5;stroke-dasharray:none;stroke-opacity:1"
       d="m 176.8923,93.990758 -5.6546,3.272892 0.0537,0.093 -2.37718,1.372467 -1.30448,0.75314 0.49472,0.856883 -3.62674,2.89486 -7.52924,5.41953 -9.68144,6.14541 -12.91581,8.31936 -1.25592,2.17531 0.39601,-0.22864 0.27197,0.47108 -2.08456,1.20353 -1.60517,2.48314 7.35603,-4.24701 1.45965,-0.0259 -0.6981,1.04274 -9.98208,5.76315 -3.60002,6.23542 2.81759,-1.62673 0.13254,0.22955 -3.60161,2.07939 -1.5646,2.70997 5.29748,-3.0585 0.33109,0.57347 -6.6269,3.82605 -5.49104,8.50128 2.01744,-1.16476 0.17256,0.64403 -2.89045,1.66881 -2.71354,4.30084 -20.263754,31.3674 -0.81396,0.84183 -1.27079,0.37423 -5.14493,-0.22444 -0.18788,-0.43442 6.63192,-23.18877 -1.47564,0.85195 -0.0592,-0.2209 1.04131,-0.60118 0.21715,-0.81046 -0.28097,-0.0995 2.40668,-8.90139 0.92014,-0.42138 -2.27627,-7.32554 -5.78082,3.08743 -6.373997,3.61509 -5.042907,2.82931 -11.095812,19.53097 0.590382,-0.34087 0.07698,0.13336 1.216083,-0.7021 0.14551,0.25203 -1.216239,0.70219 0.08282,0.14343 -1.702366,1.0164 -0.297298,0.69952 -1.351455,1.12499 -4.532128,2.42227 -0.307018,-1.20509 -0.783512,-15.14289 0.533825,-0.14304 -0.167645,-0.44777 0.353759,-0.22193 -1.74293,-2.88645 -1.512154,1.53359 -1.371178,-0.49082 -1.433833,0.87688 -0.287826,-0.066 -1.34408,0.67801 -0.681782,1.31108 -0.682889,0.3578 -0.44105,-0.75592 -1.324027,0.641 1.217813,-0.82653 -0.434213,-0.75987 0.651317,-0.4125 1.476317,0.0651 1.25921,-0.825 0.08684,-0.28224 1.476317,-0.80329 0.260524,-1.43289 2.08421,-0.54277 -1.628288,-2.95263 -0.36908,0.1954 -0.303946,-0.36908 -0.390789,0.39078 -12.722368,-8.24999 -0.890132,-0.86843 4.363815,-2.71381 1.65,-0.6079 0.754441,0.0923 1.731414,-0.96611 0.08282,0.14344 1.216236,-0.7022 0.145513,0.25204 -1.216078,0.70211 0.07698,0.13334 -0.590388,0.34086 22.46222,0.15623 4.971708,-2.95263 6.317763,-3.7125 5.564193,-3.46261 -5.205968,-5.6341 -0.825,0.58618 -8.912172,-2.36645 0.05428,-0.29309 -0.810443,-0.21716 -1.041307,0.6012 -0.161706,-0.1617 1.475627,-0.85196 -23.398025,-5.85097 -0.282236,-0.37994 2.378106,-4.56786 0.95948,-0.91342 1.136023,-0.284 37.296857,-1.86523 5.081399,-0.19957 2.890462,-1.66881 0.471466,0.47146 -2.017445,1.16478 10.107854,-0.50474 6.6269,-3.82604 0.3311,0.57347 -5.29748,3.0585 h 3.1292 l 3.60161,-2.07939 0.13253,0.22956 -2.81759,1.62674 h 7.20005 l 9.98208,-5.76316 1.25209,-0.0832 -0.75223,1.25116 -7.35604,4.24701 2.95305,-0.14855 2.08457,-1.20352 0.27198,0.47108 -0.39601,0.22863 h 2.51183 l 13.66268,-7.02574 10.1628,-5.311678 8.45807,-3.810741 4.32039,-1.693421 0.49472,0.856877 1.30448,-0.753139 2.37718,-1.372465 0.0537,0.09296 3.37499,-1.948553 0.24494,0.424251 -3.37309,1.947453 0.0514,0.08895 -3.64432,2.104046 0.22181,0.384175 5.45877,-0.901063 -3.51045,4.277315 0.22179,0.38418 3.64432,-2.104047 0.0514,0.089 5.6527,-3.271802 0.10398,0.20911 1.29816,-0.763995 -0.33868,-0.510738 1.03283,0.06568 5.43243,-3.013786 -5.40983,3.010058 -0.36845,0.982506 -0.35308,-0.544984"
       id="path356" /><text
       xml:space="preserve"
       style="font-weight:bold;font-size:7.79222px;font-family:'Trebuchet MS';-inkscape-font-specification:'Trebuchet MS, Bold';fill:#fdfdfd;fill-opacity:0;stroke:#ffffff;stroke-width:0.404312;stroke-opacity:1"
       x="-27.661922"
       y="169.10388"
       id="text1628"
       transform="rotate(-30)"><tspan
         id="tspan1626"
         style="stroke:#ffffff;stroke-width:0.404312;stroke-opacity:1"
         x="-27.661922"
         y="169.10388">SU-22 FLIGHTGEAR DEV TEAM</tspan></text></g></svg>
